<svg width="236" height="251" viewBox="0 0 236 251" fill="none" xmlns="http://www.w3.org/2000/svg">
<path d="M194.342 156.169C196.116 152.737 194.763 148.525 191.34 146.759L178.216 140.007C179.457 134.213 179.918 128.365 179.663 122.572L193.706 118.073C197.393 116.895 199.423 112.965 198.236 109.286L191.367 87.7916C190.197 84.1129 186.263 82.0786 182.58 83.2615L168.533 87.7558C165.369 82.8896 161.587 78.4088 157.223 74.394L163.984 61.2876C165.75 57.8553 164.401 53.6299 160.969 51.8734L140.895 41.5316C137.467 39.7707 133.251 41.1194 131.494 44.5428L124.728 57.6536C118.943 56.4304 113.091 55.9644 107.307 56.2198L102.803 42.1545C101.638 38.4802 97.6953 36.4549 94.021 37.6378L72.5175 44.5159C68.8343 45.6898 66.8089 49.615 67.9874 53.2938L72.4861 67.3456C67.6334 70.5136 63.1257 74.2864 59.1243 78.6552L46.0135 71.8982C42.5901 70.1237 38.3647 71.4725 36.6127 74.8914L26.271 94.9654C24.4921 98.3843 25.8498 102.61 29.2687 104.38L42.4064 111.128C41.1607 116.926 40.6813 122.764 40.9457 128.567L26.8804 133.061C23.2151 134.244 21.1987 138.169 22.3727 141.853L29.2418 163.347C30.4202 167.017 34.3544 169.051 38.0242 167.891L52.0895 163.388C55.244 168.245 59.0168 172.726 63.3856 176.736L56.6196 189.856C54.8452 193.279 56.1984 197.5 59.6352 199.27L79.7003 209.603C83.1415 211.368 87.3535 210.024 89.1145 206.587L95.8581 193.481C101.67 194.704 107.522 195.179 113.302 194.919L117.81 208.98C118.975 212.663 122.918 214.688 126.592 213.505L148.087 206.627C151.761 205.445 153.791 201.506 152.612 197.836L148.118 183.78C152.975 180.634 157.483 176.861 161.462 172.488L174.595 179.25C178.018 181.006 182.23 179.68 183.996 176.247L194.342 156.169ZM93.4564 158.297C75.3852 148.973 68.2876 126.793 77.5898 108.717C86.892 90.6504 109.09 83.5438 127.161 92.8594C145.223 102.166 152.334 124.36 143.01 142.422C133.712 160.493 111.519 167.604 93.4564 158.297Z" fill="#C4C4C4" fill-opacity="0.33"/>
</svg>
