<svg width="522" height="521" viewBox="0 0 522 521" fill="none" xmlns="http://www.w3.org/2000/svg">
<path d="M124.861 154.723L144.205 178.117C137.322 187.877 131.627 198.554 127.321 209.976L97.1115 207.099C89.1894 206.356 82.1724 212.154 81.4241 220.062L77.0374 266.363C76.2757 274.276 82.0783 281.288 89.9825 282.05L120.224 284.913C122.294 296.949 125.896 308.509 130.807 319.38L107.404 338.723C101.279 343.791 100.423 352.865 105.473 358.972L135.113 394.823C140.177 400.953 149.232 401.8 155.371 396.755L178.779 377.397C188.525 384.284 199.211 389.98 210.633 394.268L207.761 424.509C207.013 432.417 212.815 439.439 220.719 440.183L267.02 444.578C274.919 445.327 281.959 439.524 282.698 431.615L285.579 401.383C297.601 399.309 309.162 395.724 320.041 390.795L339.38 414.212C344.444 420.333 353.517 421.197 359.647 416.125L395.485 386.498C401.606 381.435 402.475 372.383 397.398 366.249L378.054 342.837C384.937 333.087 390.628 322.395 394.943 310.983L425.166 313.873C433.088 314.617 440.1 308.796 440.853 300.892L445.24 254.601C446.002 246.687 440.194 239.67 432.281 238.918L402.058 236.054C399.979 224.028 396.39 212.463 391.465 201.579L414.86 182.226C421.008 177.181 421.85 168.112 416.787 161.982L387.168 126.153C382.101 120.019 373.036 119.145 366.906 124.218L343.507 143.566C333.753 136.67 323.075 130.984 311.649 126.673L314.525 96.4545C315.274 88.5279 309.471 81.5244 301.553 80.7672L255.258 76.3849C247.353 75.6232 240.341 81.4348 239.584 89.3434L236.702 119.558C224.68 121.65 213.111 125.244 202.249 130.173L182.897 106.751C177.833 100.622 168.778 99.7748 162.652 104.834L126.792 134.456C120.654 139.538 119.793 148.598 124.861 154.723ZM268.288 185.036C309.959 188.988 340.536 225.973 336.589 267.649C332.632 309.316 295.643 339.897 253.98 335.936C212.282 331.993 181.714 295 185.679 253.324C189.622 211.652 226.612 181.07 268.288 185.036Z" fill="#C4C4C4" fill-opacity="0.33"/>
</svg>
